<?xml version="1.0" encoding="UTF-8" standalone="no"?>
<svg viewBox="0 0 107 128" version="1.1" xmlns="http://www.w3.org/2000/svg" xmlns:xlink="http://www.w3.org/1999/xlink">
    <!-- Generator: Sketch 43.2 (39069) - http://www.bohemiancoding.com/sketch -->
    <title>Fill 6</title>
    <desc>Created with Sketch.</desc>
    <defs></defs>
    <g id="Symbols" stroke="none" stroke-width="1" fill="none" fill-rule="evenodd">
        <g id="Logo-Icon-Black" fill="#000000">
            <path d="M96.0161008,81.0940292 C84.1255543,37.6081157 63.1396812,27.3070309 31.7984601,22.4313771 C49.8602147,13.9243015 65.703173,18.179286 68.6721888,18.7999553 C69.5701351,15.6025681 69.381856,11.668769 65.5004109,7.01013235 C65.5438599,5.14378413 66.3838742,3.42066729 67.3832015,1.87261101 C68.5563248,0.0641340524 69.4687541,-0.42777168 71.6122387,0.367958181 C105.010046,12.5802414 118.261995,53.7686658 96.0161008,81.0940292 Z M50.3656715,54.1303612 C27.3232118,54.1303612 8.11874819,70.5469916 3.83177894,92.3210542 C-7.14633826,63.3188709 7.1194209,37.5082878 25.6866323,25.7748893 C57.2740645,26.2653482 83.7634792,48.0553254 91.2511924,77.4770753 C83.010363,63.5069525 67.7887256,54.1303612 50.3656715,54.1303612 Z M73.9440024,121.039668 C73.4950292,121.054136 53.0450273,121.068604 42.2407061,104.300406 C45.6586951,107.295243 50.1339434,109.10372 55.0436819,109.060317 C65.659724,108.987978 74.2915945,99.8298505 74.4074585,89.7313152 C74.2481455,83.3654763 70.6418774,77.2889937 65.5148939,73.8745892 C66.1535944,74.0626708 73.1039881,75.8277443 78.5061487,82.9459096 C84.4731464,89.8904612 88.0649315,109.450948 73.9440024,121.039668 Z M70.7432584,90.2666244 C70.7432584,93.3772047 69.9611762,96.2997035 68.5852908,98.8605069 C68.1797667,95.4895058 66.6300852,90.9755473 61.6624148,87.8939026 C55.2609269,84.0599314 48.2656359,85.3330992 42.8924413,90.2087531 C42.8924413,90.2087531 46.3683623,75.2200961 60.1996314,73.7877823 C66.4273232,76.6668776 70.7432584,82.9459096 70.7432584,90.2666244 Z M8.78496638,102.694478 C8.71255136,93.3338013 14.49127,79.8932005 23.0941746,71.299318 C36.5054365,58.7470412 62.9514022,51.8748287 81.7937907,70.4746525 C74.8709146,65.2271758 63.9811438,61.2065698 49.8298003,68.9989353 C42.2696721,74.6124478 37.2875187,80.7902051 36.7081985,96.0103472 C37.3309677,111.476442 51.6981079,125.828515 70.0770402,123.716214 C44.2103947,137.25809 16.8230337,115.498495 8.78496638,102.694478 L8.78496638,102.694478 Z" id="Fill-6"></path>
        </g>
    </g>
</svg>