<?xml version="1.0" encoding="UTF-8" standalone="no"?>
<svg viewBox="0 0 107 128" version="1.1" xmlns="http://www.w3.org/2000/svg" xmlns:xlink="http://www.w3.org/1999/xlink">
    <!-- Generator: Sketch 43.2 (39069) - http://www.bohemiancoding.com/sketch -->
    <title>Logo Icon</title>
    <desc>Created with Sketch.</desc>
    <defs></defs>
    <g id="Symbols" stroke="none" stroke-width="1" fill="none" fill-rule="evenodd">
        <g id="Logo-Icon">
            <path d="M68.4517753,103.095877 C68.6399121,102.148033 70.0349643,92.8442922 61.6350695,87.622299 C55.2455172,83.7978736 48.2619731,85.0726821 42.9018487,89.9181346 C42.9018487,89.9181346 47.2538437,71.2870449 65.4664344,73.6584248 C68.516854,74.8506068 81.9656785,88.3340671 68.4517753,103.095877" id="Fill-9" fill="#C35D94"></path>
            <path d="M70.0243151,123.315756 C88.5386346,112.394897 84.8859405,90.1730963 78.4348592,82.7048434 C73.0487032,75.6013273 66.1113059,73.8531872 65.4676177,73.6584248 C70.5958251,77.0567336 74.1893566,83.1144346 74.3372629,89.4483441 C74.2355034,99.5228722 65.615524,108.634212 55.0277991,108.718018 C46.5356107,108.780578 39.3012176,103.317788 36.7288311,95.7019879 C37.5381744,111.330195 51.8981017,125.873635 70.0243151,123.315756" id="Fill-10" fill="#E56DAE"></path>
            <path d="M8.87866568,102.369944 C16.9022869,115.126292 44.2282724,136.802757 70.0243151,123.315756 C51.6839334,125.418009 37.3512209,111.118908 36.7288311,95.7019879 C37.3192731,80.5423905 42.2818254,74.3878985 49.8285967,68.8011684 C63.9483241,61.0295583 74.8129296,65.0369423 81.7171959,70.2648374 C63.4963225,52.8495373 35.3941247,57.6454139 21.8317082,70.6838717 C13.250776,79.2439745 9.0668025,92.0239294 8.87866568,102.369944" id="Fill-11" fill="#E5B26A"></path>
            <path d="M25.7482671,25.7362497 C5.03310177,38.8077581 -10.3041904,69.4078828 8.87866568,102.369944 C11.4238374,55.2008507 62.0006939,50.1004364 81.7171959,70.2648374 C86.8323875,73.961782 92.5818014,84.5273473 92.5818014,84.5273473 C92.5853511,84.5190847 92.5889009,84.5143632 92.5960004,84.5084613 C87.9233444,51.5829914 59.8140471,26.2650592 25.7482671,25.7362497" id="Fill-12" fill="#65D8A3"></path>
            <path d="M71.5637239,0.427760485 C69.4161244,-0.357191026 68.5085713,0.122042528 67.3383366,1.92684081 C66.3455895,3.46133249 65.4971989,5.18468468 65.4486857,7.04259999 C69.3297471,11.6873883 69.5226169,15.590899 68.6280796,18.789724 C65.3232611,18.0921204 46.1770859,12.9433107 25.7482671,25.7362497 C59.8140471,26.2650592 87.9233444,51.5829914 92.5960004,84.5084613 C119.265282,57.4671768 106.390334,13.1510572 71.5637239,0.427760485" id="Fill-13" fill="#65B2D7"></path>
            <path d="M99.5558794,75.6851342 C102.612215,69.2249242 104.290064,62.0116329 104.290064,54.3922916 C104.290064,30.6513446 87.8511661,10.7525287 65.7090008,5.38652935 C66.0308449,4.16247715 66.6544179,2.98209894 67.3430696,1.92920157 C68.5062048,0.126764041 69.4102081,-0.365453673 71.5613574,0.427760485 C102.827567,11.8467393 116.404182,48.7028686 99.5558794,75.6851342" id="Fill-14" fill="#5697B7"></path>
        </g>
    </g>
</svg>