<?xml version="1.0" encoding="UTF-8" standalone="no"?>
<svg viewBox="0 0 515 514" version="1.1" xmlns="http://www.w3.org/2000/svg" xmlns:xlink="http://www.w3.org/1999/xlink">
    <!-- Generator: Sketch 43.2 (39069) - http://www.bohemiancoding.com/sketch -->
    <title>thinking</title>
    <desc>Created with Sketch.</desc>
    <defs></defs>
    <g id="Page-1" stroke="none" stroke-width="1" fill="none" fill-rule="evenodd">
        <g id="thinking" fill-rule="nonzero">
            <path d="M266.667,401.6 L266.667,356.8 L229.334,349.333 C227.201,344 225.067,337.6 222.934,332.266 L243.201,300.266 L211.201,268.266 L179.201,289.599 C173.868,286.399 168.534,284.266 162.134,282.132 L155.734,245.865 L110.934,245.865 L103.467,283.198 C98.134,285.331 91.734,287.465 86.4,290.665 L54.4,269.332 L22.4,301.332 L43.733,333.332 C40.533,338.665 38.4,343.999 36.266,350.399 L0,356.8 L0,401.6 L37.333,409.067 C39.467,414.4 41.6,420.8 44.8,426.133 L23.467,458.133 L55.467,490.133 L87.467,469.866 C92.8,473.066 98.134,475.199 104.534,476.266 L112,513.6 L156.8,513.6 L164.267,476.267 C169.6,474.134 176,472 181.334,469.867 L213.334,490.134 L245.334,458.134 L225.067,426.134 C228.267,420.801 230.4,415.467 231.467,409.067 L266.667,401.6 Z M133.333,413.333 C114.133,413.333 99.2,398.4 99.2,379.2 C99.2,360 114.133,345.067 133.333,345.067 C152.533,345.067 167.467,360 167.467,379.2 C167.467,398.4 152.533,413.333 133.333,413.333 Z" id="Shape" fill="#56B88B"></path>
            <path d="M133.333,317.333 C99.2,317.333 71.466,345.066 71.466,379.2 C71.466,413.334 99.199,441.067 133.333,441.067 C167.467,441.067 195.2,413.333 195.2,379.2 C195.2,345.067 167.467,317.333 133.333,317.333 Z M133.333,413.333 C114.133,413.333 99.2,398.4 99.2,379.2 C99.2,360 114.133,345.067 133.333,345.067 C152.533,345.067 167.467,360 167.467,379.2 C167.467,398.4 152.533,413.333 133.333,413.333 Z" id="Shape" fill="#398864"></path>
            <path d="M300.8,6.933 C281.6,6.933 266.667,21.866 266.667,41.066 L266.667,45.333 C256,45.333 245.334,51.733 237.867,61.333 C235.734,65.6 233.6,69.866 232.534,74.133 C225.067,74.133 217.601,78.4 214.401,84.8 C211.201,91.2 211.201,98.667 213.334,104 C199.467,113.6 189.867,129.6 189.867,147.733 C189.867,174.4 209.067,195.733 234.667,200 C230.4,209.6 230.4,221.333 235.734,232 C244.267,250.133 266.667,258.667 285.867,250.133 C284.8,253.333 283.734,256.533 283.734,260.8 C283.734,274.667 295.467,286.4 309.334,286.4 C323.201,286.4 334.934,274.667 334.934,260.8 L334.934,41.067 C333.867,21.867 318.933,6.933 300.8,6.933 Z" id="SVGCleanerId_0" fill="#D895B9"></path>
            <path d="M300.8,6.933 C281.6,6.933 266.667,21.866 266.667,41.066 L266.667,45.333 C256,45.333 245.334,51.733 237.867,61.333 C235.734,65.6 233.6,69.866 232.534,74.133 C225.067,74.133 217.601,78.4 214.401,84.8 C211.201,91.2 211.201,98.667 213.334,104 C199.467,113.6 189.867,129.6 189.867,147.733 C189.867,174.4 209.067,195.733 234.667,200 C230.4,209.6 230.4,221.333 235.734,232 C244.267,250.133 266.667,258.667 285.867,250.133 C284.8,253.333 283.734,256.533 283.734,260.8 C283.734,274.667 295.467,286.4 309.334,286.4 C323.201,286.4 334.934,274.667 334.934,260.8 L334.934,41.067 C333.867,21.867 318.933,6.933 300.8,6.933 Z" id="SVGCleanerId_0_1_" fill="#D895B9"></path>
            <path d="M308.267,293.867 C290.134,293.867 276.267,278.934 276.267,261.867 L276.267,260.8 C257.067,264 237.867,253.333 229.334,235.2 C225.067,225.6 224.001,214.933 226.134,205.333 C201.601,197.866 183.467,174.4 183.467,147.733 C183.467,129.6 192,112.533 205.867,101.866 C204.8,94.399 205.867,87.999 209.067,81.599 C213.334,74.132 219.734,69.866 228.267,67.732 C229.334,63.465 231.467,60.265 233.6,58.132 C240,48.532 249.6,42.132 261.333,39.999 C262.4,18.666 279.466,1.599 301.866,1.599 C324.266,1.599 342.4,19.733 342.4,42.133 L342.4,262.933 C340.267,280 326.4,293.867 308.267,293.867 Z M284.8,244.8 C286.933,244.8 288,245.867 289.067,246.933 C291.2,249.066 291.2,252.266 290.134,254.4 C289.067,256.533 288.001,259.733 288.001,261.867 C288.001,272.534 296.534,281.067 307.201,281.067 C317.868,281.067 326.401,272.534 326.401,261.867 L326.401,41.067 C326.401,26.134 314.668,14.4 299.734,14.4 C284.801,14.4 273.067,26.133 273.067,41.067 L273.067,44.267 L273.067,45.334 C273.067,47.467 273.067,48.534 272,50.667 C270.933,51.734 268.8,52.8 267.733,52.8 C258.133,53.867 249.6,58.133 243.2,66.667 C241.067,69.867 240,73.067 238.933,77.334 C237.866,80.534 235.733,82.667 232.533,82.667 C227.2,82.667 221.866,85.867 219.733,90.134 C217.6,94.401 216.533,99.734 218.666,104.001 C219.733,107.201 218.666,110.401 216.533,112.534 C203.733,121.067 196.266,136.001 196.266,150.934 C196.266,173.334 212.266,193.601 234.666,196.801 C236.799,196.801 238.933,197.868 238.933,200.001 C240,202.134 240,204.268 238.933,205.334 C234.666,213.867 235.733,223.467 238.933,232.001 C246.4,246.934 264.533,254.401 280.533,246.934 C283.733,244.8 283.733,244.8 284.8,244.8 Z" id="Shape" fill="#C35D94"></path>
            <path d="M296.533,59.2 C300.8,59.2 302.933,56 304,52.8 C304,48.533 300.8,45.333 297.6,45.333 C285.867,44.266 275.2,37.866 268.8,32.533 C266.667,36.8 266.667,41.066 266.667,44.266 L266.667,48.533 C274.133,53.867 284.8,59.2 296.533,59.2 L296.533,59.2 Z" id="Shape" fill="#C35D94"></path>
            <path d="M262.4,109.333 L263.467,109.333 C266.667,109.333 269.867,107.2 270.934,104 C272.001,99.733 268.801,96.533 265.601,95.467 C247.468,92.267 241.068,80.534 238.934,74.134 L238.934,74.134 C233.601,74.134 229.334,76.267 226.134,79.467 C229.333,90.133 240,105.067 262.4,109.333 Z" id="Shape" fill="#C35D94"></path>
            <path d="M236.8,95.467 L236.8,88 C230.4,93.333 221.867,107.2 230.4,126.4 C231.467,129.6 235.733,131.733 240,130.667 C243.2,128.534 245.333,125.334 244.267,121.067 C237.867,106.134 246.4,99.734 247.467,98.667 C248.534,97.6 249.6,96.534 249.6,95.467 L236.8,95.467 L236.8,95.467 Z" id="Shape" fill="#C35D94"></path>
            <path d="M250.667,191.467 C254.934,181.867 253.867,172.267 248.534,160.534 C246.401,157.334 242.134,155.201 238.934,157.334 C235.734,159.467 233.601,163.734 235.734,166.934 C238.934,174.401 240.001,180.801 237.867,186.134 C233.6,195.734 220.8,201.067 220.8,201.067 C219.733,201.067 219.733,202.134 219.733,202.134 C226.133,205.334 232.533,206.401 240,206.401 L240,206.401 C243.2,203.2 248.533,197.867 250.667,191.467 Z" id="Shape" fill="#C35D94"></path>
            <path d="M282.667,185.067 C278.4,174.4 272,170.134 266.667,169.067 C258.134,165.867 250.667,168 246.4,170.134 C246.4,174.401 244.267,178.667 241.067,182.934 L241.067,182.934 C243.2,185.067 246.4,185.067 249.6,184.001 C249.6,184.001 257.067,179.734 262.4,181.868 C265.6,182.935 267.733,186.135 269.867,190.401 C270.934,193.601 274.134,194.668 276.267,194.668 L278.4,194.668 C282.667,193.6 283.733,189.333 282.667,185.067 Z" id="Shape" fill="#C35D94"></path>
            <path d="M301.867,243.733 C305.067,242.666 308.267,242.666 311.467,243.733 C314.667,244.8 318.934,243.733 321.067,239.466 C322.134,236.266 321.067,231.999 316.8,229.866 C310.4,227.733 302.933,227.733 296.533,230.933 C284.8,236.266 277.333,248 273.066,257.6 C279.466,257.6 285.866,257.6 291.199,254.4 C293.333,250.133 297.6,245.867 301.867,243.733 Z" id="Shape" fill="#C35D94"></path>
            <path d="M288,239.467 L288,239.467 C292.267,237.334 296.533,236.267 301.867,235.2 C297.6,218.133 281.6,211.733 273.067,211.733 C268.8,211.733 265.6,213.866 265.6,218.133 C265.6,222.4 267.733,225.6 272,225.6 C270.933,224.533 284.8,226.667 288,239.467 Z" id="Shape" fill="#C35D94"></path>
            <path d="M314.667,145.6 C305.067,150.933 292.267,166.933 301.867,193.6 C302.934,196.8 307.2,197.867 309.334,197.867 C312.534,196.8 315.734,192.534 314.667,188.267 C306.134,165.867 320,158.4 321.067,157.334 C323.2,156.267 324.267,155.201 324.267,153.067 C321.067,150.933 316.8,148.8 314.667,145.6 Z" id="Shape" fill="#C35D94"></path>
            <path d="M286.933,83.733 C284.8,86.933 286.933,91.2 290.133,93.333 C291.2,93.333 292.266,94.4 293.333,94.4 C295.466,94.4 298.666,93.333 299.733,90.133 C307.2,74.133 324.266,73.066 333.866,74.133 L333.866,60.267 C317.867,58.133 296.533,62.4 286.933,83.733 Z" id="Shape" fill="#C35D94"></path>
            <path d="M321.067,144.533 C316.8,140.266 314.667,136 314.667,128.533 C314.667,124.266 311.467,121.066 307.2,121.066 C302.933,121.066 299.733,124.266 299.733,128.533 C299.733,139.2 302.933,148.8 310.4,155.2 C316.8,161.6 325.333,163.733 332.8,164.8 L332.8,149.867 C329.6,149.867 325.333,147.733 321.067,144.533 Z" id="Shape" fill="#C35D94"></path>
            <path d="M395.733,6.933 C413.867,6.933 428.8,21.867 428.8,40 L428.8,44.267 C440.533,45.334 451.2,50.667 457.6,61.334 C459.733,65.601 461.867,69.867 462.933,74.134 C470.4,74.134 477.866,78.401 481.066,84.801 C484.266,91.201 484.266,98.668 482.133,104.001 C496,113.6 505.6,129.6 505.6,147.733 C505.6,174.4 486.4,195.733 460.8,200 C465.067,209.6 465.067,221.333 459.733,232 C451.2,250.133 428.8,258.667 409.6,250.133 C410.667,253.333 411.733,256.533 411.733,260.8 C411.733,274.667 400,286.4 386.133,286.4 C372.266,286.4 360.533,274.667 360.533,260.8 L360.533,41.067 C361.6,21.867 376.533,6.933 395.733,6.933 Z" id="SVGCleanerId_1" fill="#D895B9"></path>
            <path d="M395.733,6.933 C413.867,6.933 428.8,21.867 428.8,40 L428.8,44.267 C440.533,45.334 451.2,50.667 457.6,61.334 C459.733,65.601 461.867,69.867 462.933,74.134 C470.4,74.134 477.866,78.401 481.066,84.801 C484.266,91.201 484.266,98.668 482.133,104.001 C496,113.6 505.6,129.6 505.6,147.733 C505.6,174.4 486.4,195.733 460.8,200 C465.067,209.6 465.067,221.333 459.733,232 C451.2,250.133 428.8,258.667 409.6,250.133 C410.667,253.333 411.733,256.533 411.733,260.8 C411.733,274.667 400,286.4 386.133,286.4 C372.266,286.4 360.533,274.667 360.533,260.8 L360.533,41.067 C361.6,21.867 376.533,6.933 395.733,6.933 Z" id="SVGCleanerId_1_1_" fill="#D895B9"></path>
            <path d="M355.2,261.867 L355.2,41.067 C355.2,18.667 373.333,0.534 395.733,0.534 C417.066,0.534 435.2,17.601 436.266,38.934 C448,41.067 457.6,47.467 464,57.067 C466.133,60.267 467.2,63.467 469.333,66.667 C476.8,68.8 484.266,73.067 488.533,80.534 C491.733,86.934 492.8,94.401 491.733,100.801 C505.6,112.534 514.133,128.534 514.133,146.668 C514.133,173.335 497.066,196.801 471.466,204.268 C473.599,213.868 472.533,224.535 468.266,234.135 C459.733,252.268 440.533,261.868 421.333,259.735 L421.333,260.802 C421.333,278.935 407.466,292.802 389.333,292.802 C370.133,293.867 355.2,280 355.2,261.867 Z M412.8,244.8 C428.8,251.2 446.933,244.8 454.4,229.867 C458.667,221.334 458.667,211.734 454.4,203.2 C453.333,201.067 453.333,198.933 454.4,197.867 C455.467,195.734 457.6,194.667 458.667,194.667 C481.067,191.467 497.067,171.2 497.067,148.8 C497.067,133.867 489.6,118.933 476.8,110.4 C474.667,108.267 473.6,105.067 474.667,101.867 C476.8,97.6 476.8,92.267 473.6,88 C471.467,83.733 466.133,80.533 460.8,80.533 C457.6,80.533 455.467,78.4 454.4,75.2 C453.333,70.933 452.267,67.733 450.133,64.533 C444.8,56 436.267,51.733 425.6,50.667 C423.467,50.667 422.4,49.6 421.333,48.534 C420.266,47.467 419.2,45.334 420.266,43.201 L420.266,42.134 L420.266,38.934 C420.266,24.001 408.533,12.267 393.599,12.267 C378.665,12.267 366.933,24 366.933,38.933 L366.933,259.733 C366.933,270.4 375.466,278.933 386.133,278.933 C396.8,278.933 405.333,270.4 405.333,259.733 C405.333,257.6 404.266,254.4 403.2,252.266 C402.133,250.133 402.133,246.933 404.267,244.799 C405.334,243.732 407.467,242.666 408.534,242.666 C411.733,244.8 412.8,244.8 412.8,244.8 Z" id="Shape" fill="#C35D94"></path>
            <path d="M401.067,59.2 C397.867,59.2 394.667,56 394.667,51.733 C394.667,47.466 397.867,45.333 402.134,45.333 C413.867,46.4 425.601,41.066 432.001,35.733 C433.068,40 433.068,43.2 433.068,47.466 C433.068,48.533 432.001,50.666 432.001,51.733 C424.533,56 413.867,60.267 401.067,59.2 L401.067,59.2 Z" id="Shape" fill="#C35D94"></path>
            <path d="M434.133,104 L433.066,104 C429.866,104 426.666,101.867 425.599,98.667 C424.532,94.4 427.732,91.2 430.932,90.134 C449.065,86.934 455.465,75.201 457.599,68.801 L457.599,68.801 C462.932,68.801 467.199,70.934 470.399,74.134 C467.2,85.867 456.533,99.733 434.133,104 Z" id="Shape" fill="#C35D94"></path>
            <path d="M458.667,92.267 L458.667,84.8 C465.067,90.133 473.6,104 465.067,123.2 C464,126.4 459.734,128.533 455.467,127.467 C452.267,125.334 450.134,122.134 451.2,117.867 C457.6,102.934 449.067,96.534 448,95.467 C446.933,94.4 445.867,93.334 445.867,92.267 L458.667,92.267 L458.667,92.267 Z" id="Shape" fill="#C35D94"></path>
            <path d="M444.8,191.467 C439.467,182.934 439.467,172.267 442.667,160.534 C443.734,157.334 448,155.201 451.2,156.267 C454.4,157.334 456.533,161.6 455.467,164.8 C453.334,172.267 453.334,178.667 455.467,184 C460.8,193.6 474.667,195.733 474.667,195.733 C475.734,195.733 475.734,195.733 475.734,196.8 C470.401,200 462.934,203.2 456.534,204.267 L456.534,204.267 C453.333,201.067 448,197.867 444.8,191.467 Z" id="Shape" fill="#C35D94"></path>
            <path d="M412.8,185.067 C417.067,174.4 423.467,170.134 428.8,169.067 C437.333,165.867 444.8,168 449.067,170.134 C449.067,174.401 451.2,178.667 454.4,182.934 L454.4,182.934 C452.267,185.067 449.067,185.067 445.867,184.001 C445.867,184.001 438.4,179.734 433.067,181.868 C429.867,182.935 427.734,186.135 425.6,190.401 C424.533,193.601 421.333,194.668 419.2,194.668 L417.067,194.668 C413.867,193.6 411.733,189.333 412.8,185.067 Z" id="Shape" fill="#C35D94"></path>
            <path d="M411.733,256.533 L420.266,255.466 C418.133,246.933 413.866,237.333 407.466,230.933 C402.133,225.6 395.733,223.466 388.266,223.466 C383.999,223.466 381.866,226.666 381.866,230.933 C381.866,235.2 385.066,237.333 389.333,237.333 C392.533,237.333 395.733,238.4 398.933,240.533 C402.133,243.733 404.266,249.066 406.4,254.4 C408.533,256.533 410.667,257.6 412.8,258.667 L411.733,256.533 Z" id="Shape" fill="#C35D94"></path>
            <path d="M407.467,237.333 L407.467,237.333 C404.267,234.133 400,232 395.734,228.8 C404.267,213.867 421.334,211.733 429.867,212.8 C434.134,213.867 436.267,217.067 436.267,221.333 C435.2,225.6 432,227.733 427.734,227.733 C426.667,227.733 412.8,225.6 407.467,237.333 Z" id="Shape" fill="#C35D94"></path>
            <path d="M381.867,145.6 C391.467,150.933 404.267,166.933 394.667,193.6 C393.6,196.8 389.334,197.867 387.2,197.867 C384,196.8 380.8,192.534 381.867,188.267 C390.4,165.867 376.534,158.4 375.467,157.334 C373.334,156.267 372.267,155.201 372.267,153.067 C374.4,150.933 378.667,148.8 381.867,145.6 Z" id="Shape" fill="#C35D94"></path>
            <path d="M409.6,83.733 C411.733,86.933 409.6,91.2 406.4,93.333 C405.333,93.333 404.267,94.4 403.2,94.4 C401.067,94.4 397.867,93.333 396.8,90.133 C389.333,74.133 372.267,73.066 362.667,74.133 L362.667,60.267 C377.6,58.133 398.933,62.4 409.6,83.733 Z" id="Shape" fill="#C35D94"></path>
            <path d="M374.4,144.533 C378.667,140.266 380.8,136 380.8,128.533 C380.8,124.266 384,121.066 388.267,121.066 C392.534,121.066 395.734,124.266 395.734,128.533 C395.734,139.2 392.534,148.8 385.067,155.2 C378.667,161.6 370.134,163.733 362.667,164.8 L362.667,149.867 C365.867,149.867 371.2,147.733 374.4,144.533 Z" id="Shape" fill="#C35D94"></path>
            <path d="M176,61.333 L138.667,138.133 L130.134,113.6 C80,130.667 49.067,178.667 51.2,228.8 C44.8,219.2 39.467,209.6 35.2,197.867 C13.867,136 46.933,69.867 108.8,48.533 L100.267,25.066 L176,61.333 Z" id="Shape" fill="#5697B7"></path>
            <path d="M336,451.733 L373.333,376 L381.866,400.533 C431.999,383.466 462.933,335.466 460.799,285.333 C467.199,294.933 472.532,304.533 476.799,316.266 C498.132,378.133 465.066,444.266 403.199,465.599 L411.732,490.132 L336,451.733 Z" id="Shape" fill="#5697B7"></path>
        </g>
    </g>
</svg>