<svg viewBox="0 0 107 128" xmlns="http://www.w3.org/2000/svg"><title>Logo Icon</title><g fill="none" fill-rule="evenodd"><path d="M68.452 103.096c.188-.948 1.583-10.252-6.817-15.474-6.39-3.824-13.373-2.55-18.733 2.296 0 0 4.352-18.631 22.564-16.26 3.05 1.193 16.5 14.676 2.986 29.438" fill="#C35D94"/><path d="M70.024 123.316c18.515-10.921 14.862-33.143 8.41-40.611-5.385-7.104-12.323-8.852-12.966-9.047 5.128 3.399 8.721 9.456 8.87 15.79-.102 10.075-8.722 19.186-19.31 19.27-8.492.063-15.727-5.4-18.3-13.016.81 15.628 15.17 30.172 33.296 27.614" fill="#E56DAE"/><path d="M8.879 102.37c8.023 12.756 35.35 34.433 61.145 20.946-18.34 2.102-32.673-12.197-33.295-27.614.59-15.16 5.553-21.314 13.1-26.9 14.12-7.772 24.984-3.765 31.888 1.463-18.22-17.415-46.323-12.62-59.885.419-8.581 8.56-12.765 21.34-12.953 31.686" fill="#E5B26A"/><path d="M25.748 25.736C5.033 38.808-10.304 69.408 8.878 102.37c2.546-47.17 53.123-52.27 72.84-32.105 5.114 3.697 10.864 14.262 10.864 14.262a.045.045 0 0 1 .014-.019c-4.673-32.925-32.782-58.243-66.848-58.772" fill="#65D8A3"/><path d="M71.564.428c-2.148-.785-3.055-.306-4.226 1.499-.992 1.534-1.84 3.258-1.89 5.116 3.882 4.644 4.075 8.548 3.18 11.747-3.305-.698-22.45-5.847-42.88 6.946 34.066.53 62.175 25.847 66.848 58.772 26.67-27.04 13.794-71.357-21.032-84.08" fill="#65B2D7"/><path d="M99.556 75.685c3.056-6.46 4.734-13.673 4.734-21.293 0-23.74-16.439-43.64-38.581-49.005.322-1.225.945-2.405 1.634-3.458C68.506.127 69.41-.365 71.561.428c31.267 11.419 44.843 48.275 27.995 75.257" fill="#5697B7"/></g></svg>