<svg viewBox="0 0 107 128" xmlns="http://www.w3.org/2000/svg"><title>Fill 6</title><path d="M96.016 81.094C84.126 37.608 63.14 27.307 31.798 22.431 49.86 13.924 65.703 18.18 68.672 18.8c.898-3.197.71-7.131-3.172-11.79.044-1.866.884-3.59 1.883-5.137 1.173-1.809 2.086-2.3 4.23-1.505 33.397 12.212 46.649 53.4 24.403 80.726zM50.366 54.13c-23.043 0-42.247 16.417-46.534 38.191C-7.146 63.32 7.119 37.508 25.687 25.775c31.587.49 58.076 22.28 65.564 51.702-8.24-13.97-23.462-23.347-40.885-23.347zm23.578 66.91c-.449.014-20.899.029-31.703-16.74 3.418 2.995 7.893 4.804 12.803 4.76 10.616-.072 19.248-9.23 19.363-19.329-.159-6.366-3.765-12.442-8.892-15.856.639.188 7.589 1.953 12.991 9.07 5.967 6.945 9.559 26.506-4.562 38.095zm-3.2-30.773c0 3.11-.783 6.033-2.159 8.594-.405-3.371-1.955-7.885-6.923-10.967-6.401-3.834-13.396-2.56-18.77 2.315 0 0 3.476-14.989 17.308-16.421 6.227 2.879 10.543 9.158 10.543 16.479zM8.784 102.694c-.072-9.36 5.706-22.8 14.31-31.395 13.41-12.552 39.856-19.424 58.699-.824-6.923-5.248-17.813-9.268-31.964-1.476-7.56 5.613-12.542 11.791-13.122 27.011.623 15.466 14.99 29.819 33.369 27.706-25.867 13.542-53.254-8.218-61.292-21.022z" fill="#000" fill-rule="evenodd"/></svg>