<svg viewBox="0 0 515 514" xmlns="http://www.w3.org/2000/svg"><title>thinking</title><g fill-rule="nonzero" fill="none"><path d="M266.667 401.6v-44.8l-37.333-7.467c-2.133-5.333-4.267-11.733-6.4-17.067l20.267-32-32-32-32 21.333c-5.333-3.2-10.667-5.333-17.067-7.467l-6.4-36.267h-44.8l-7.467 37.333c-5.333 2.133-11.733 4.267-17.067 7.467l-32-21.333-32 32 21.333 32c-3.2 5.333-5.333 10.667-7.467 17.067L0 356.8v44.8l37.333 7.467C39.467 414.4 41.6 420.8 44.8 426.133l-21.333 32 32 32 32-20.267c5.333 3.2 10.667 5.333 17.067 6.4L112 513.6h44.8l7.467-37.333c5.333-2.133 11.733-4.267 17.067-6.4l32 20.267 32-32-20.267-32c3.2-5.333 5.333-10.667 6.4-17.067l35.2-7.467zm-133.334 11.733c-19.2 0-34.133-14.933-34.133-34.133 0-19.2 14.933-34.133 34.133-34.133 19.2 0 34.134 14.933 34.134 34.133 0 19.2-14.934 34.133-34.134 34.133z" fill="#56B88B"/><path d="M133.333 317.333c-34.133 0-61.867 27.733-61.867 61.867s27.733 61.867 61.867 61.867S195.2 413.333 195.2 379.2c0-34.133-27.733-61.867-61.867-61.867zm0 96c-19.2 0-34.133-14.933-34.133-34.133 0-19.2 14.933-34.133 34.133-34.133 19.2 0 34.134 14.933 34.134 34.133 0 19.2-14.934 34.133-34.134 34.133z" fill="#398864"/><path d="M300.8 6.933c-19.2 0-34.133 14.933-34.133 34.133v4.267c-10.667 0-21.333 6.4-28.8 16-2.133 4.267-4.267 8.533-5.333 12.8-7.467 0-14.933 4.267-18.133 10.667-3.2 6.4-3.2 13.867-1.067 19.2-13.867 9.6-23.467 25.6-23.467 43.733 0 26.667 19.2 48 44.8 52.267-4.267 9.6-4.267 21.333 1.067 32 8.533 18.133 30.933 26.667 50.133 18.133-1.067 3.2-2.133 6.4-2.133 10.667 0 13.867 11.733 25.6 25.6 25.6s25.6-11.733 25.6-25.6V41.067c-1.067-19.2-16.001-34.134-34.134-34.134z" fill="#D895B9"/><path d="M300.8 6.933c-19.2 0-34.133 14.933-34.133 34.133v4.267c-10.667 0-21.333 6.4-28.8 16-2.133 4.267-4.267 8.533-5.333 12.8-7.467 0-14.933 4.267-18.133 10.667-3.2 6.4-3.2 13.867-1.067 19.2-13.867 9.6-23.467 25.6-23.467 43.733 0 26.667 19.2 48 44.8 52.267-4.267 9.6-4.267 21.333 1.067 32 8.533 18.133 30.933 26.667 50.133 18.133-1.067 3.2-2.133 6.4-2.133 10.667 0 13.867 11.733 25.6 25.6 25.6s25.6-11.733 25.6-25.6V41.067c-1.067-19.2-16.001-34.134-34.134-34.134z" fill="#D895B9"/><path d="M308.267 293.867c-18.133 0-32-14.933-32-32V260.8c-19.2 3.2-38.4-7.467-46.933-25.6-4.267-9.6-5.333-20.267-3.2-29.867-24.533-7.467-42.667-30.933-42.667-57.6 0-18.133 8.533-35.2 22.4-45.867-1.067-7.467 0-13.867 3.2-20.267 4.267-7.467 10.667-11.733 19.2-13.867 1.067-4.267 3.2-7.467 5.333-9.6 6.4-9.6 16-16 27.733-18.133 1.067-21.333 18.133-38.4 40.533-38.4 22.4 0 40.534 18.134 40.534 40.534v220.8c-2.133 17.067-16 30.934-34.133 30.934zM284.8 244.8c2.133 0 3.2 1.067 4.267 2.133 2.133 2.133 2.133 5.333 1.067 7.467-1.067 2.133-2.133 5.333-2.133 7.467a19.12 19.12 0 0 0 19.2 19.2 19.12 19.12 0 0 0 19.2-19.2v-220.8c0-14.933-11.733-26.667-26.667-26.667-14.933 0-26.667 11.733-26.667 26.667v4.267c0 2.133 0 3.2-1.067 5.333-1.067 1.067-3.2 2.133-4.267 2.133-9.6 1.067-18.133 5.333-24.533 13.867-2.133 3.2-3.2 6.4-4.267 10.667-1.067 3.2-3.2 5.333-6.4 5.333-5.333 0-10.667 3.2-12.8 7.467-2.133 4.267-3.2 9.6-1.067 13.867 1.067 3.2 0 6.4-2.133 8.533-12.8 8.533-20.267 23.467-20.267 38.4 0 22.4 16 42.667 38.4 45.867 2.133 0 4.267 1.067 4.267 3.2 1.067 2.133 1.067 4.267 0 5.333-4.267 8.533-3.2 18.133 0 26.667 7.467 14.933 25.6 22.4 41.6 14.933 3.2-2.134 3.2-2.134 4.267-2.134z" fill="#C35D94"/><path d="M296.533 59.2c4.267 0 6.4-3.2 7.467-6.4 0-4.267-3.2-7.467-6.4-7.467-11.733-1.067-22.4-7.467-28.8-12.8-2.133 4.267-2.133 8.533-2.133 11.733v4.267C274.133 53.867 284.8 59.2 296.533 59.2zM262.4 109.333h1.067c3.2 0 6.4-2.133 7.467-5.333 1.067-4.267-2.133-7.467-5.333-8.533-18.133-3.2-24.533-14.933-26.667-21.333-5.333 0-9.6 2.133-12.8 5.333 3.199 10.666 13.866 25.6 36.266 29.866z" fill="#C35D94"/><path d="M236.8 95.467V88c-6.4 5.333-14.933 19.2-6.4 38.4 1.067 3.2 5.333 5.333 9.6 4.267 3.2-2.133 5.333-5.333 4.267-9.6-6.4-14.933 2.133-21.333 3.2-22.4 1.067-1.067 2.133-2.133 2.133-3.2h-12.8zM250.667 191.467c4.267-9.6 3.2-19.2-2.133-30.933-2.133-3.2-6.4-5.333-9.6-3.2-3.2 2.133-5.333 6.4-3.2 9.6 3.2 7.467 4.267 13.867 2.133 19.2-4.267 9.6-17.067 14.933-17.067 14.933-1.067 0-1.067 1.067-1.067 1.067 6.4 3.2 12.8 4.267 20.267 4.267 3.2-3.201 8.533-8.534 10.667-14.934z" fill="#C35D94"/><path d="M282.667 185.067c-4.267-10.667-10.667-14.933-16-16-8.533-3.2-16-1.067-20.267 1.067 0 4.267-2.133 8.533-5.333 12.8 2.133 2.133 5.333 2.133 8.533 1.067 0 0 7.467-4.267 12.8-2.133 3.2 1.067 5.333 4.267 7.467 8.533 1.067 3.2 4.267 4.267 6.4 4.267h2.133c4.267-1.068 5.333-5.335 4.267-9.601zM301.867 243.733c3.2-1.067 6.4-1.067 9.6 0 3.2 1.067 7.467 0 9.6-4.267 1.067-3.2 0-7.467-4.267-9.6-6.4-2.133-13.867-2.133-20.267 1.067-11.733 5.333-19.2 17.067-23.467 26.667 6.4 0 12.8 0 18.133-3.2 2.134-4.267 6.401-8.533 10.668-10.667z" fill="#C35D94"/><path d="M288 239.467c4.267-2.133 8.533-3.2 13.867-4.267-4.267-17.067-20.267-23.467-28.8-23.467-4.267 0-7.467 2.133-7.467 6.4s2.133 7.467 6.4 7.467c-1.067-1.067 12.8 1.067 16 13.867zM314.667 145.6c-9.6 5.333-22.4 21.333-12.8 48 1.067 3.2 5.333 4.267 7.467 4.267 3.2-1.067 6.4-5.333 5.333-9.6-8.533-22.4 5.333-29.867 6.4-30.933 2.133-1.067 3.2-2.133 3.2-4.267-3.2-2.134-7.467-4.267-9.6-7.467zM286.933 83.733c-2.133 3.2 0 7.467 3.2 9.6 1.067 0 2.133 1.067 3.2 1.067 2.133 0 5.333-1.067 6.4-4.267 7.467-16 24.533-17.067 34.133-16V60.267c-15.999-2.134-37.333 2.133-46.933 23.466z" fill="#C35D94"/><path d="M321.067 144.533c-4.267-4.267-6.4-8.533-6.4-16 0-4.267-3.2-7.467-7.467-7.467-4.267 0-7.467 3.2-7.467 7.467 0 10.667 3.2 20.267 10.667 26.667 6.4 6.4 14.933 8.533 22.4 9.6v-14.933c-3.2 0-7.467-2.134-11.733-5.334z" fill="#C35D94"/><path d="M395.733 6.933C413.867 6.933 428.8 21.867 428.8 40v4.267c11.733 1.067 22.4 6.4 28.8 17.067 2.133 4.267 4.267 8.533 5.333 12.8 7.467 0 14.933 4.267 18.133 10.667 3.2 6.4 3.2 13.867 1.067 19.2C496 113.6 505.6 129.6 505.6 147.733c0 26.667-19.2 48-44.8 52.267 4.267 9.6 4.267 21.333-1.067 32-8.533 18.133-30.933 26.667-50.133 18.133 1.067 3.2 2.133 6.4 2.133 10.667 0 13.867-11.733 25.6-25.6 25.6s-25.6-11.733-25.6-25.6V41.067c1.067-19.2 16-34.134 35.2-34.134z" fill="#D895B9"/><path d="M395.733 6.933C413.867 6.933 428.8 21.867 428.8 40v4.267c11.733 1.067 22.4 6.4 28.8 17.067 2.133 4.267 4.267 8.533 5.333 12.8 7.467 0 14.933 4.267 18.133 10.667 3.2 6.4 3.2 13.867 1.067 19.2C496 113.6 505.6 129.6 505.6 147.733c0 26.667-19.2 48-44.8 52.267 4.267 9.6 4.267 21.333-1.067 32-8.533 18.133-30.933 26.667-50.133 18.133 1.067 3.2 2.133 6.4 2.133 10.667 0 13.867-11.733 25.6-25.6 25.6s-25.6-11.733-25.6-25.6V41.067c1.067-19.2 16-34.134 35.2-34.134z" fill="#D895B9"/><path d="M355.2 261.867v-220.8c0-22.4 18.133-40.533 40.533-40.533 21.333 0 39.467 17.067 40.533 38.4C448 41.067 457.6 47.467 464 57.067c2.133 3.2 3.2 6.4 5.333 9.6 7.467 2.133 14.933 6.4 19.2 13.867 3.2 6.4 4.267 13.867 3.2 20.267 13.867 11.733 22.4 27.733 22.4 45.867 0 26.667-17.067 50.133-42.667 57.6 2.133 9.6 1.067 20.267-3.2 29.867-8.533 18.133-27.733 27.733-46.933 25.6v1.067c0 18.133-13.867 32-32 32-19.2 1.065-34.133-12.802-34.133-30.935zm57.6-17.067c16 6.4 34.133 0 41.6-14.933 4.267-8.533 4.267-18.133 0-26.667-1.067-2.133-1.067-4.267 0-5.333 1.067-2.133 3.2-3.2 4.267-3.2 22.4-3.2 38.4-23.467 38.4-45.867 0-14.933-7.467-29.867-20.267-38.4-2.133-2.133-3.2-5.333-2.133-8.533C476.8 97.6 476.8 92.267 473.6 88c-2.133-4.267-7.467-7.467-12.8-7.467-3.2 0-5.333-2.133-6.4-5.333-1.067-4.267-2.133-7.467-4.267-10.667C444.8 56 436.267 51.733 425.6 50.667c-2.133 0-3.2-1.067-4.267-2.133-1.067-1.067-2.133-3.2-1.067-5.333v-4.267c0-14.933-11.733-26.667-26.667-26.667-14.934 0-26.666 11.733-26.666 26.666v220.8a19.12 19.12 0 0 0 19.2 19.2 19.12 19.12 0 0 0 19.2-19.2c0-2.133-1.067-5.333-2.133-7.467-1.067-2.133-1.067-5.333 1.067-7.467 1.067-1.067 3.2-2.133 4.267-2.133 3.199 2.134 4.266 2.134 4.266 2.134z" fill="#C35D94"/><path d="M401.067 59.2c-3.2 0-6.4-3.2-6.4-7.467 0-4.267 3.2-6.4 7.467-6.4 11.733 1.067 23.467-4.267 29.867-9.6 1.067 4.267 1.067 7.467 1.067 11.733 0 1.067-1.067 3.2-1.067 4.267-7.468 4.267-18.134 8.534-30.934 7.467zM434.133 104h-1.067c-3.2 0-6.4-2.133-7.467-5.333-1.067-4.267 2.133-7.467 5.333-8.533 18.133-3.2 24.533-14.933 26.667-21.333 5.333 0 9.6 2.133 12.8 5.333C467.2 85.867 456.533 99.733 434.133 104z" fill="#C35D94"/><path d="M458.667 92.267V84.8c6.4 5.333 14.933 19.2 6.4 38.4-1.067 3.2-5.333 5.333-9.6 4.267-3.2-2.133-5.333-5.333-4.267-9.6 6.4-14.933-2.133-21.333-3.2-22.4-1.067-1.067-2.133-2.133-2.133-3.2h12.8zM444.8 191.467c-5.333-8.533-5.333-19.2-2.133-30.933 1.067-3.2 5.333-5.333 8.533-4.267 3.2 1.067 5.333 5.333 4.267 8.533-2.133 7.467-2.133 13.867 0 19.2 5.333 9.6 19.2 11.733 19.2 11.733 1.067 0 1.067 0 1.067 1.067-5.333 3.2-12.8 6.4-19.2 7.467-3.201-3.2-8.534-6.4-11.734-12.8z" fill="#C35D94"/><path d="M412.8 185.067c4.267-10.667 10.667-14.933 16-16 8.533-3.2 16-1.067 20.267 1.067 0 4.267 2.133 8.533 5.333 12.8-2.133 2.133-5.333 2.133-8.533 1.067 0 0-7.467-4.267-12.8-2.133-3.2 1.067-5.333 4.267-7.467 8.533-1.067 3.2-4.267 4.267-6.4 4.267h-2.133c-3.2-1.068-5.334-5.335-4.267-9.601zM411.733 256.533l8.533-1.067c-2.133-8.533-6.4-18.133-12.8-24.533-5.333-5.333-11.733-7.467-19.2-7.467-4.267 0-6.4 3.2-6.4 7.467 0 4.267 3.2 6.4 7.467 6.4 3.2 0 6.4 1.067 9.6 3.2 3.2 3.2 5.333 8.533 7.467 13.867 2.133 2.133 4.267 3.2 6.4 4.267l-1.067-2.134z" fill="#C35D94"/><path d="M407.467 237.333c-3.2-3.2-7.467-5.333-11.733-8.533 8.533-14.933 25.6-17.067 34.133-16 4.267 1.067 6.4 4.267 6.4 8.533-1.067 4.267-4.267 6.4-8.533 6.4-1.067 0-14.934-2.133-20.267 9.6zM381.867 145.6c9.6 5.333 22.4 21.333 12.8 48-1.067 3.2-5.333 4.267-7.467 4.267-3.2-1.067-6.4-5.333-5.333-9.6 8.533-22.4-5.333-29.867-6.4-30.933-2.133-1.067-3.2-2.133-3.2-4.267 2.133-2.134 6.4-4.267 9.6-7.467zM409.6 83.733c2.133 3.2 0 7.467-3.2 9.6-1.067 0-2.133 1.067-3.2 1.067-2.133 0-5.333-1.067-6.4-4.267-7.467-16-24.533-17.067-34.133-16V60.267C377.6 58.133 398.933 62.4 409.6 83.733z" fill="#C35D94"/><path d="M374.4 144.533c4.267-4.267 6.4-8.533 6.4-16 0-4.267 3.2-7.467 7.467-7.467 4.267 0 7.467 3.2 7.467 7.467 0 10.667-3.2 20.267-10.667 26.667-6.4 6.4-14.933 8.533-22.4 9.6v-14.933c3.2 0 8.533-2.134 11.733-5.334z" fill="#C35D94"/><path d="M176 61.333l-37.333 76.8-8.533-24.533C80 130.667 49.067 178.667 51.2 228.8c-6.4-9.6-11.733-19.2-16-30.933-21.333-61.867 11.733-128 73.6-149.334l-8.533-23.467L176 61.333zM336 451.733L373.333 376l8.533 24.533c50.133-17.067 81.067-65.067 78.933-115.2 6.4 9.6 11.733 19.2 16 30.933 21.333 61.867-11.733 128-73.6 149.333l8.533 24.533L336 451.733z" fill="#5697B7"/></g></svg>